<svg xmlns="http://www.w3.org/2000/svg" width="149.6" height="138.577" viewBox="0 0 149.6 138.577">
  <g id="balance" transform="translate(-9.887 -13.349)" opacity="0.05">
    <g id="Group_17009" data-name="Group 17009" transform="translate(9.887 13.349)">
      <path id="Path_23588" data-name="Path 23588" d="M159.378,87.261c0-.15-.15-.3-.15-.45.45-.75.15-2.1-.9-1.951a1.353,1.353,0,0,0-.75.15c-1.651-5.853-5.1-11.105-8.4-16.208-1.8-2.851-3.752-5.7-5.253-8.7a33.447,33.447,0,0,1-2.851-7.654c.15-.15.45-.3.6-.45a.421.421,0,0,0-.3-.75c.6-1.5-.45-3.6-1.651-4.652a2.133,2.133,0,0,0-.9-.3c-.15,0-.15.15-.3.15,0-.15,0-.15-.15-.3s-.15-.45-.3-.6a1.353,1.353,0,0,0-.15-.75c0-.15,0-.15-.15-.15.15,0,.15,0,.3.15.3.15.45-.3.3-.45-3.152-2.7-7.053-4.2-10.955-5.4a73.935,73.935,0,0,0-13.807-3.3,173.4,173.4,0,0,0-27.913-1.951h-.15v-1.8c0-.15,0-.15-.15-.15v-6.9a5.541,5.541,0,0,0,3.6-3.9,4.259,4.259,0,0,0-1.351-3.9l.15-.15c.15-.15,0-.3-.15-.15l-.15.15a11.568,11.568,0,0,0-2.851-2.1,8.128,8.128,0,0,0-5.553-1.351,4.334,4.334,0,0,0-3.6,3.3h0c-.3.15-.3.6-.15,1.051-.6,3.452,1.051,7.654,4.052,8.854V37.587c-.15,0-.15-.15-.3-.15a136.381,136.381,0,0,0-27.163,2.1,85.9,85.9,0,0,0-21.91,6.6,3.04,3.04,0,0,0-2.251-.6,2.782,2.782,0,0,1-.3-1.05c3.3-1.351,6.6-2.7,9.9-3.752a101.1,101.1,0,0,1,13.356-3,166.067,166.067,0,0,1,27.313-1.951.979.979,0,0,0,0-1.951,134.952,134.952,0,0,0-28.063,1.5,87.988,87.988,0,0,0-13.807,3.3,33.048,33.048,0,0,0-9.6,4.5c-.3,0-.6.15-.6.45-.15.15-.45.3-.6.6-.3.15,0,.6.3.45.15,0,.3-.15.45-.15,0,.3.15.75.15,1.051a.992.992,0,0,0-.15.9,4.315,4.315,0,0,0-2.7,1.051c-.9.75-1.5,1.351-1.2,2.551a14.751,14.751,0,0,0,.75,2.4,4.426,4.426,0,0,0,1.951,2.1c-4.052,9.755-8.4,19.209-14.107,28.063a.607.607,0,1,0,1.051.6C17.41,74.5,22.813,64.9,25.514,54.7a5,5,0,0,0,3.3-.15h0c.45,4.952,2.551,9.755,4.652,14.107,2.251,4.8,5.1,9.154,7.5,13.957-1.651.15-3.3.15-4.952.3a58.228,58.228,0,0,1-8.854.3c-5.553,0-11.405-.75-16.958.45-.15,0-.15.3,0,.45a11.416,11.416,0,0,0,.45,6.753c0,.15,0,.15.15.15a8.343,8.343,0,0,0,1.351,2.551c-.3.3-.3.75.15.9a2.536,2.536,0,0,0,.75.3,19.226,19.226,0,0,0,13.657,6.6A17.806,17.806,0,0,0,38.87,97.016a15.444,15.444,0,0,0,3.9-5.853c.75-2.1,1.5-4.952.75-7.053a.67.67,0,0,0,0-.75.15.15,0,1,1,0-.3c.3-.3.3-.9-.3-.9h-.45C38.12,72.7,31.817,64.15,29.866,53.8a6.048,6.048,0,0,0,2.551-4.352,4.107,4.107,0,0,0-1.351-3.3c15.007-6.153,32.416-8.4,48.473-7.954h.3c0,10.655-.15,21.16-.15,31.815-.6,7.5-.6,14.857-.6,22.211,0,7.2-.3,14.407.15,21.46-6.153.6-12.006,2.851-17.558,5.7-6.153,3.152-12.006,6.6-18.159,9.755-.3-.15-.9.15-.6.6,1.051,2.251.45,4.5.15,6.753-.15,1.2-.15,2.851,1.051,3.452.3.15.6,0,.6-.45,0-1.8-.15-3.452,0-5.1a7.7,7.7,0,0,0-.9-4.8h.15c0,.15,0,.15.15.15a23.19,23.19,0,0,0,3.3,1.8v.15a19.116,19.116,0,0,0-1.651,5.7,22.479,22.479,0,0,0-.3,3.3h-.15c-.45.45-.75.9-.6,1.351a7.611,7.611,0,0,1-1.351-2.4h-.15c-.45,1.951.6,3.9,1.651,5.4a12.631,12.631,0,0,0,6.3,4.5c6.6,2.551,14.107,2.551,21.16,2.251,1.651,0,3.3-.15,4.8-.3a78.636,78.636,0,0,0,8.4-.3c3.9-.3,7.8-.9,11.706-1.5a34.9,34.9,0,0,0,4.2-.75c.15,0,.3-.15.45-.15a101.081,101.081,0,0,0,16.208-4.952.916.916,0,0,0,.45-1.351c.15-.15.15-.3.15-.6a59.821,59.821,0,0,0-.45-10.355,1.137,1.137,0,0,0,.15-1.5c-2.251-2.551-4.952-4.2-7.954-6-2.851-1.8-5.553-3.752-8.554-5.4a42.044,42.044,0,0,0-15.758-4.952,22.389,22.389,0,0,1-.3-3.151c0-1.051-.15-2.1-.15-3.152.3-12.606.45-25.362.45-37.968.15-3.6.45-7.2.6-10.805.45-6.753-.15-13.506-.6-20.26,16.808-.45,34.967,2.251,50.274,9.3v.15l-.15.15a.465.465,0,0,1-.3-.15c-.3-.15-.75.15-.6.45a1.632,1.632,0,0,0,.15.75,2.854,2.854,0,0,0,0,2.7,3.507,3.507,0,0,0,1.051,1.051c-1.351,2.1-1.8,4.8-2.551,7.2-2.551,8.554-7.654,16.208-10.355,24.762-.15,0-.45,0-.45.3-.6,2.4-.9,4.5.15,6.9a7.334,7.334,0,0,0,2.1,2.7,20.82,20.82,0,0,0,1.651,2.851c2.851,4.5,7.053,6.453,12.156,6.9C149.323,105.27,160.729,98.366,159.378,87.261Zm-119.157,2.7c0,.15,0,.15-.15.3-1.2.3-2.551,1.05-3.6,1.351-1.951.6-4.5.9-6.3,0-.15-.15-.45.15-.3.3,1.2,1.651,3.152,1.8,5.1,1.5a16.311,16.311,0,0,0,4.2-.9,19.966,19.966,0,0,1-2.1,2.851c-2.7,2.851-6.753,4.052-10.655,4.052a17.5,17.5,0,0,1-6.753-1.351,3.449,3.449,0,0,0,2.7-1.8s0-.15-.15,0c-.9.9-2.251.75-3.452.6-1.051-.15-1.951-1.051-3-.9l-.15-.15-.15-.15a14.5,14.5,0,0,0,3.6-.15c.15,0,.15-.3,0-.45-1.651-.3-3.452-.45-5.1-.9-.45-.6-.9-1.351-1.351-1.951,2.4.6,4.952.3,7.5.15a.3.3,0,1,0,0-.6c-2.7-.15-5.7-.3-8.254-1.351a21.252,21.252,0,0,1-1.051-3.3h0a12.262,12.262,0,0,0,10.505-.3c.45-.15.15-.75-.3-.6-3.152.9-6.6,1.2-9.6-.3a.668.668,0,0,0-.9.3c-.15-.6-.3-1.051-.45-1.651a89.792,89.792,0,0,0,16.658,1.8,58.155,58.155,0,0,0,8.854-.15,14.758,14.758,0,0,0,5.7-1.651C40.671,86.061,40.821,88.162,40.221,89.962ZM28.815,49.743v.45l-.15.3c0,.15-.15.3-.3.45h0l-.15.15-.3.3a.524.524,0,0,1-.3.15.78.78,0,0,1-.6.3h-.75a3.139,3.139,0,0,1-.9-.6,4.622,4.622,0,0,1-.75-1.8,3.055,3.055,0,0,1,.9-1.051,5.548,5.548,0,0,1,1.651-.75.147.147,0,0,1,.15.15c.15.15.3.15.45.3l.15.15c.15.15.3.3.45.3h0l.15.15v.15h0c0,.15,0,.15.15.3h0v.15A1.162,1.162,0,0,1,28.815,49.743Zm16.808,91.394a3.025,3.025,0,0,0,.45,1.651A1.787,1.787,0,0,1,45.623,141.137ZM85.693,17.178l.15.15c-.15,0-.3.15-.6.15C85.392,17.478,85.543,17.328,85.693,17.178Zm-1.651-1.051a11.416,11.416,0,0,1-3.152-1.2A6.849,6.849,0,0,1,84.042,16.127Zm-5.553,6.9c-.15-.15-.3-.45-.45-.6a7.239,7.239,0,0,0,4.352-2.551c.15-.15,0-.15-.15-.15a8.509,8.509,0,0,1-1.951,1.2,5.886,5.886,0,0,1-2.7.6,6.8,6.8,0,0,1-.45-2.4,12.34,12.34,0,0,0,4.052-.3v-.15a11.232,11.232,0,0,1-3.9-.15,1.9,1.9,0,0,1,.15-.9,6.4,6.4,0,0,1,2.7-.9.225.225,0,1,0,0-.45,7.07,7.07,0,0,0-2.551.6c.15-.3.15-.45.3-.75a2.57,2.57,0,0,1,2.4-1.351,4.42,4.42,0,0,0,4.352,1.8h.15c.15,0,.15.15.3.15h0a2.261,2.261,0,0,1-2.551.45c-.45-.15-.6.45-.15.6a3.308,3.308,0,0,0,2.4,0,6.156,6.156,0,0,0,1.651-.15,2.635,2.635,0,0,1,.6.75,15.751,15.751,0,0,0-3.452,1.2c-.15,0,0,.15.15.15a31.581,31.581,0,0,1,3.6-.9.9.9,0,0,1,.15.6c-.3.15-.45.3-.75.3a4.621,4.621,0,0,1-1.951.45.377.377,0,0,0,0,.75,4.154,4.154,0,0,0,1.951-.45c.15,0,.45-.15.6-.15a3.544,3.544,0,0,1-.9,1.351c-.6.15-1.051.45-1.651.6a24.917,24.917,0,0,1-3.3.45.147.147,0,0,0-.15.15,1.146,1.146,0,0,1-.75-.3.332.332,0,0,0-.45.45,3.612,3.612,0,0,0,.9,1.2A2.655,2.655,0,0,1,78.489,23.03Zm5.253,79.538c0,2.7.15,5.4.3,8.1,0,.9.15,1.951.15,3H82.541a16.309,16.309,0,0,0-2.7.15c.45-6.9.15-13.657.15-20.56,0-7.354-.15-14.857-.15-22.211-.15-14.857-.15-29.714-.3-44.571a1.632,1.632,0,0,0,.75.15,5.583,5.583,0,0,0,4.5-1.8h.15a56.643,56.643,0,0,0-.3,7.053c0,1.8,0,3.452.15,5.253a.678.678,0,0,0,0,1.351h0c.15,1.8.15,3.452.3,5.253,0,7.8,0,15.758,0,23.711-.45,6.153-.9,12.456-1.051,18.609C83.742,91.463,83.742,97.016,83.742,102.568Zm33.016,40.069.45-.45h0c0,.15,0,.15.15.3C117.058,142.487,116.908,142.487,116.757,142.638Zm.45-.9a.208.208,0,0,0-.3,0,16,16,0,0,1-2.851,1.051,8.708,8.708,0,0,0-1.5-8.7h-.15c1.5,2.851.75,5.853.9,8.854-1.2.3-2.4.75-3.6,1.051a32.628,32.628,0,0,0-.15-6.6.377.377,0,0,0-.75,0,50.743,50.743,0,0,0-.15,6.753c-1.5.45-3,.75-4.5,1.351a16.236,16.236,0,0,0,0-2.7c0-1.8,0-3.6-.15-5.4,0-.6-.75-.6-.9,0-.15,1.651-.15,3.152-.15,4.8a15.726,15.726,0,0,0,.15,3.752h0a23.935,23.935,0,0,1-5.7,1.051c.45-2.851-.9-6.153.75-8.854.15-.15-.15-.3-.3-.15a8.048,8.048,0,0,0-1.651,4.052,19.361,19.361,0,0,0,0,5.1c-1.651.15-3.3.45-5.1.6-1.051-2.4-2.251-5.4-1.5-7.954,0-.15-.15-.3-.3-.15a6.673,6.673,0,0,0-.9,4.8,9.11,9.11,0,0,0,.75,2.7,3.28,3.28,0,0,0,.45.75c-4.5.45-9,.6-13.506.6-.3-3-1.051-5.853-1.5-8.854,0-.3-.45-.15-.6.15a33.857,33.857,0,0,0,.3,8.7c-1.651,0-3.3-.15-5.1-.3a20.429,20.429,0,0,0-.3-3.152c-.3-2.251-.75-4.352-1.05-6.6,0-.45-.6-.3-.75.15a29,29,0,0,0,.3,7.2,7.459,7.459,0,0,0,.3,2.4c-1.651-.15-3.3-.3-5.1-.45-.15-2.851-.6-6.3.6-8.854.15-.3-.3-.6-.45-.3-2.1,2.4-1.8,6-1.651,9-1.351-.15-2.7-.45-4.052-.6a14.493,14.493,0,0,1-.45-10.355c.15-.3-.3-.45-.45-.15a12.741,12.741,0,0,0-1.2,10.2h0c-1.351-.3-2.551-.6-3.752-.9,1.051-3.452.6-7.8.15-11.255a.377.377,0,0,0-.75,0c-.3,2.1-.45,4.2-.6,6.3a34.9,34.9,0,0,1-.75,4.2,19.71,19.71,0,0,1-2.551-1.351.147.147,0,0,0,.15-.15c.6-1.5.3-3.152.3-4.8a47.244,47.244,0,0,1,.75-6.453v-.15c1.8.75,3.752,1.351,5.553,1.951a75.052,75.052,0,0,0,11.405,3,76.71,76.71,0,0,0,20.26,1.2,146.612,146.612,0,0,0,18.159-2.4c3-.6,5.853-1.2,8.7-1.951a21.745,21.745,0,0,0,5.253-1.8C117.058,135.134,117.058,138.436,117.208,141.737ZM95,121.477c-2.851.15-5.853,1.351-8.7,2.1-3.6,1.05-7.053,1.8-10.805,2.551-.3,0-.15.45,0,.45a40.094,40.094,0,0,0,9.455-1.5c3.452-.9,7.354-1.5,10.805-2.851a.147.147,0,0,0,.15-.15c1.2.6,2.551,1.05,3.752,1.8-1.05.45-1.951.75-2.851,1.05-2.251.75-4.352,1.5-6.6,2.1a80.226,80.226,0,0,1-14.557,2.7v.15a40.785,40.785,0,0,0,14.107-1.5c2.551-.6,4.952-1.5,7.354-2.251,1.351-.45,2.851-.9,4.2-1.5a58.545,58.545,0,0,1,5.253,2.851c-3.6,1.2-7.2,2.7-10.805,3.9a58.726,58.726,0,0,1-16.808,2.7.225.225,0,0,0,0,.45c5.553.6,11.105-.45,16.358-1.951a84.078,84.078,0,0,0,12.156-4.5c.45.3.9.45,1.351.75a4.7,4.7,0,0,0,1.5.75,33.114,33.114,0,0,1-4.052,1.8c-2.1.6-4.2,1.051-6.153,1.651a.322.322,0,0,0,.15.6c3.452-.6,8.254-1.051,11.255-3.452a17.886,17.886,0,0,0,3,1.2,19,19,0,0,1-2.7.9c-2.7.75-5.4,1.351-8.1,1.951a143.3,143.3,0,0,1-17.708,2.4,86.4,86.4,0,0,1-19.659-.9,93.845,93.845,0,0,1-10.805-2.551c-3.6-1.05-7.053-2.551-10.655-3.3,5.7-1.951,10.955-4.952,16.658-7.2a53.62,53.62,0,0,1,21.16-3.452A28.506,28.506,0,0,1,95,121.477Zm44.121-73.235a3.153,3.153,0,0,1,1.05,2.1.524.524,0,0,0-.15.3v.3c0,.15-.15.15-.3.3h-.75a1.972,1.972,0,0,1-1.5-.45.78.78,0,0,1-.3-.6C137.167,49.443,138.368,48.693,139.118,48.242Zm-26.863-9.154a126.927,126.927,0,0,0-26.112-2.1v-.6h0v-.9h.15a166.067,166.067,0,0,1,27.313,1.951,101.1,101.1,0,0,1,13.356,3c3.452,1.051,6.6,2.4,9.9,3.752a.147.147,0,0,0-.15.15,1.263,1.263,0,0,0-.6,1.051,1.218,1.218,0,0,0,.6,1.2c.15.15.3.45.45.6h0C129.063,42.84,120.659,40.589,112.255,39.088ZM134.616,63.55c.75-2.1,1.051-4.2,1.651-6.453l.9-3.152a3.111,3.111,0,0,1,.3-.9c.3,0,.45.15.75.15a3.543,3.543,0,0,0,1.8-.15c.45,5.253,4.052,10.655,6.6,15.007,3.3,5.4,7.2,10.955,9,17.108-5.4.45-10.955,0-16.358-.15-4.352-.15-9,.75-13.506.3C128.163,77.807,132.215,71.053,134.616,63.55Zm22.511,25.662h0c-1.651.3-2.851,1.351-4.5,1.8a17.307,17.307,0,0,1-5.553.3.475.475,0,0,0-.15.9,16.148,16.148,0,0,0,6,0,7.9,7.9,0,0,0,4.052-1.951,7.137,7.137,0,0,1-.75,2.7,13.38,13.38,0,0,1-4.052,2.251,22.641,22.641,0,0,1-6.3.75c-.3,0-.3.3,0,.45a12.919,12.919,0,0,0,8.554-.3l-.9.9c-3.3,1.05-6.153,4.2-9.755,2.251-.3-.15-.6.15-.3.45a4.514,4.514,0,0,0,3.3,1.2,21.166,21.166,0,0,1-6.153,1.05,13.816,13.816,0,0,1-9.755-3,40.228,40.228,0,0,0,6-.3.225.225,0,0,0,0-.45,25.786,25.786,0,0,0-6.753-.3h-.15a2.072,2.072,0,0,1-.45-.6,8.322,8.322,0,0,1-.9-1.2,13.318,13.318,0,0,0,2.251.3,9.03,9.03,0,0,0,6.153-1.5c.15,0,0-.3-.15-.15-1.951,1.05-4.2.75-6.453.45a8.6,8.6,0,0,1-2.1-.6h0a17.062,17.062,0,0,1-2.251-2.4c0-.15-.15-.3-.15-.45a17.6,17.6,0,0,1-.75-1.651c3.3,2.4,8.1,1.8,11.856,1.5.15,0,.15-.15,0-.15-1.8-.15-3.752-.15-5.553-.3a12.386,12.386,0,0,1-6.453-2.251h-.15a5.108,5.108,0,0,1,0-3h0a2.635,2.635,0,0,0-.6.75c0-.3-.15-.75-.15-1.05a.992.992,0,0,0,.9.15c3.9,1.951,8.854,1.2,12.906,1.2,6.153.15,12.306.9,18.309.3a.933.933,0,0,0,.9.6Z" transform="translate(-9.887 -13.349)" fill="#fff"/>
      <path id="Path_23589" data-name="Path 23589" d="M57.9,97.62a34.934,34.934,0,0,0,.9,7.954c.15.75,1.5.6,1.351-.15A46.347,46.347,0,0,0,58.8,97.47C58.65,97.17,57.9,97.17,57.9,97.62Z" transform="translate(14.154 28.668)" fill="#fff"/>
      <path id="Path_23590" data-name="Path 23590" d="M22.558,65.125c-.3,0-.15.45,0,.45a15.853,15.853,0,0,0,11.556-3.152c.6-.45-.15-1.2-.75-.9a33.214,33.214,0,0,1-5.253,2.4A36.723,36.723,0,0,1,22.558,65.125Z" transform="translate(-3.63 10.739)" fill="#fff"/>
      <path id="Path_23591" data-name="Path 23591" d="M22,69.052c0,3.452,7.8.45,8.854-.9.15-.15,0-.45-.3-.45-2.251-.15-6.3,3.752-8.254,1.351C22.15,68.752,22,68.9,22,69.052Z" transform="translate(-3.822 13.865)" fill="#fff"/>
    </g>
  </g>
</svg>
