<svg id="Group_17009" data-name="Group 17009" xmlns="http://www.w3.org/2000/svg" width="166.8" height="154.51" viewBox="0 0 166.8 154.51">
  <path id="Path_23588" data-name="Path 23588" d="M176.565,95.759c0-.167-.167-.335-.167-.5.5-.837.167-2.343-1-2.175a1.509,1.509,0,0,0-.837.167c-1.841-6.526-5.689-12.382-9.37-18.071-2.008-3.179-4.183-6.358-5.856-9.7a37.292,37.292,0,0,1-3.179-8.534c.167-.167.5-.335.669-.5a.469.469,0,0,0-.335-.837c.669-1.673-.5-4.016-1.841-5.187a2.378,2.378,0,0,0-1-.335c-.167,0-.167.167-.335.167,0-.167,0-.167-.167-.335s-.167-.5-.335-.669a1.508,1.508,0,0,0-.167-.837c0-.167,0-.167-.167-.167.167,0,.167,0,.335.167.335.167.5-.335.335-.5-3.514-3.012-7.864-4.685-12.215-6.024A82.436,82.436,0,0,0,125.531,38.2a193.341,193.341,0,0,0-31.123-2.175h-.167V34.016c0-.167,0-.167-.167-.167v-7.7a6.178,6.178,0,0,0,4.016-4.35,4.748,4.748,0,0,0-1.506-4.35l.167-.167c.167-.167,0-.335-.167-.167l-.167.167a12.9,12.9,0,0,0-3.179-2.343,9.063,9.063,0,0,0-6.191-1.506,4.832,4.832,0,0,0-4.016,3.681h0c-.335.167-.335.669-.167,1.171-.669,3.848,1.171,8.534,4.518,9.872V40.374c-.167,0-.167-.167-.335-.167A152.062,152.062,0,0,0,56.76,42.549a95.777,95.777,0,0,0-24.43,7.362,3.39,3.39,0,0,0-2.51-.669,3.1,3.1,0,0,1-.335-1.171c3.681-1.506,7.362-3.012,11.044-4.183a112.724,112.724,0,0,1,14.892-3.347,185.16,185.16,0,0,1,30.453-2.175,1.091,1.091,0,0,0,0-2.175,150.468,150.468,0,0,0-31.29,1.673,98.105,98.105,0,0,0-15.394,3.681,36.848,36.848,0,0,0-10.709,5.02c-.335,0-.669.167-.669.5-.167.167-.5.335-.669.669-.335.167,0,.669.335.5.167,0,.335-.167.5-.167,0,.335.167.837.167,1.171a1.106,1.106,0,0,0-.167,1,4.811,4.811,0,0,0-3.012,1.171c-1,.837-1.673,1.506-1.339,2.845a16.447,16.447,0,0,0,.837,2.677,4.935,4.935,0,0,0,2.175,2.343c-4.518,10.876-9.37,21.418-15.729,31.29a.677.677,0,1,0,1.171.669c6.191-9.7,12.215-20.414,15.227-31.792a5.572,5.572,0,0,0,3.681-.167h0c.5,5.522,2.845,10.876,5.187,15.729,2.51,5.354,5.689,10.207,8.366,15.561-1.841.167-3.681.167-5.522.335a64.924,64.924,0,0,1-9.872.335c-6.191,0-12.717-.837-18.908.5-.167,0-.167.335,0,.5a12.728,12.728,0,0,0,.5,7.53c0,.167,0,.167.167.167a9.3,9.3,0,0,0,1.506,2.845c-.335.335-.335.837.167,1a2.827,2.827,0,0,0,.837.335c3.514,4.35,9.37,7.028,15.227,7.362A19.853,19.853,0,0,0,42.2,106.635a17.219,17.219,0,0,0,4.35-6.526c.837-2.343,1.673-5.522.837-7.864a.747.747,0,0,0,0-.837.167.167,0,1,1,0-.335c.335-.335.335-1-.335-1h-.5c-5.187-10.542-12.215-20.079-14.39-31.625a6.743,6.743,0,0,0,2.845-4.852A4.58,4.58,0,0,0,33.5,49.912c16.733-6.86,36.142-9.37,54.046-8.868h.335c0,11.88-.167,23.593-.167,35.473-.669,8.366-.669,16.565-.669,24.764,0,8.032-.335,16.063.167,23.928-6.86.669-13.386,3.179-19.577,6.358-6.86,3.514-13.386,7.362-20.246,10.876-.335-.167-1,.167-.669.669,1.171,2.51.5,5.02.167,7.53-.167,1.339-.167,3.179,1.171,3.849.335.167.669,0,.669-.5,0-2.008-.167-3.848,0-5.689a8.59,8.59,0,0,0-1-5.354h.167c0,.167,0,.167.167.167a25.854,25.854,0,0,0,3.681,2.008v.167a21.314,21.314,0,0,0-1.841,6.358,25.064,25.064,0,0,0-.335,3.681H49.4c-.5.5-.837,1-.669,1.506a8.486,8.486,0,0,1-1.506-2.677h-.167c-.5,2.175.669,4.35,1.841,6.024a14.083,14.083,0,0,0,7.028,5.02c7.362,2.845,15.729,2.845,23.593,2.51,1.841,0,3.681-.167,5.354-.335a87.685,87.685,0,0,0,9.37-.335c4.35-.335,8.7-1,13.051-1.673a38.907,38.907,0,0,0,4.685-.837c.167,0,.335-.167.5-.167a112.7,112.7,0,0,0,18.071-5.522,1.021,1.021,0,0,0,.5-1.506c.167-.167.167-.335.167-.669a66.7,66.7,0,0,0-.5-11.545,1.268,1.268,0,0,0,.167-1.673c-2.51-2.845-5.522-4.685-8.868-6.693-3.179-2.008-6.191-4.183-9.538-6.024a46.877,46.877,0,0,0-17.569-5.522,24.963,24.963,0,0,1-.335-3.514c0-1.171-.167-2.343-.167-3.514.335-14.055.5-28.278.5-42.333.167-4.016.5-8.032.669-12.047.5-7.53-.167-15.059-.669-22.589,18.741-.5,38.987,2.51,56.054,10.374v.167l-.167.167a.518.518,0,0,1-.335-.167c-.335-.167-.837.167-.669.5a1.819,1.819,0,0,0,.167.837,3.182,3.182,0,0,0,0,3.012,3.91,3.91,0,0,0,1.171,1.171c-1.506,2.343-2.008,5.354-2.845,8.032-2.845,9.538-8.534,18.071-11.546,27.609-.167,0-.5,0-.5.335-.669,2.677-1,5.02.167,7.7a8.178,8.178,0,0,0,2.343,3.012,23.215,23.215,0,0,0,1.841,3.179c3.179,5.02,7.864,7.2,13.553,7.7C165.354,115.838,178.071,108.141,176.565,95.759ZM43.708,98.771c0,.167,0,.167-.167.335-1.339.335-2.845,1.171-4.016,1.506-2.175.669-5.02,1-7.028,0-.167-.167-.5.167-.335.335,1.339,1.841,3.514,2.008,5.689,1.673a18.186,18.186,0,0,0,4.685-1,22.261,22.261,0,0,1-2.343,3.179c-3.012,3.179-7.53,4.518-11.88,4.518a19.512,19.512,0,0,1-7.53-1.506A3.846,3.846,0,0,0,23.8,105.8s0-.167-.167,0c-1,1-2.51.837-3.848.669-1.171-.167-2.175-1.171-3.347-1l-.167-.167-.167-.167a16.168,16.168,0,0,0,4.016-.167c.167,0,.167-.335,0-.5-1.841-.335-3.848-.5-5.689-1-.5-.669-1-1.506-1.506-2.175,2.677.669,5.522.335,8.366.167a.337.337,0,1,0,0-.669c-3.012-.167-6.358-.335-9.2-1.506a23.7,23.7,0,0,1-1.171-3.681h0a13.672,13.672,0,0,0,11.713-.335c.5-.167.167-.837-.335-.669-3.514,1-7.362,1.339-10.709-.335a.745.745,0,0,0-1,.335c-.167-.669-.335-1.171-.5-1.841a100.115,100.115,0,0,0,18.573,2.008,64.842,64.842,0,0,0,9.872-.167,16.455,16.455,0,0,0,6.358-1.841C44.21,94.42,44.378,96.763,43.708,98.771ZM30.992,53.928v.5l-.167.335c0,.167-.167.335-.335.5h0l-.167.167-.335.335a.584.584,0,0,1-.335.167.869.869,0,0,1-.669.335h-.837a3.5,3.5,0,0,1-1-.669,5.154,5.154,0,0,1-.837-2.008,3.406,3.406,0,0,1,1-1.171,6.186,6.186,0,0,1,1.841-.837.164.164,0,0,1,.167.167c.167.167.335.167.5.335l.167.167c.167.167.335.335.5.335h0l.167.167v.167h0c0,.167,0,.167.167.335h0v.167A1.3,1.3,0,0,1,30.992,53.928Zm18.741,101.9a3.373,3.373,0,0,0,.5,1.841A1.992,1.992,0,0,1,49.732,155.829ZM94.408,17.618l.167.167c-.167,0-.335.167-.669.167C94.074,17.952,94.241,17.785,94.408,17.618Zm-1.841-1.171a12.728,12.728,0,0,1-3.514-1.339A7.636,7.636,0,0,1,92.568,16.447Zm-6.191,7.7c-.167-.167-.335-.5-.5-.669a8.071,8.071,0,0,0,4.852-2.845c.167-.167,0-.167-.167-.167A9.487,9.487,0,0,1,88.384,21.8a6.563,6.563,0,0,1-3.012.669,7.578,7.578,0,0,1-.5-2.677,13.758,13.758,0,0,0,4.518-.335v-.167a12.524,12.524,0,0,1-4.35-.167,2.122,2.122,0,0,1,.167-1,7.135,7.135,0,0,1,3.012-1,.251.251,0,1,0,0-.5,7.883,7.883,0,0,0-2.845.669c.167-.335.167-.5.335-.837a2.866,2.866,0,0,1,2.677-1.506,4.928,4.928,0,0,0,4.852,2.008H93.4c.167,0,.167.167.335.167h0a2.521,2.521,0,0,1-2.845.5c-.5-.167-.669.5-.167.669a3.688,3.688,0,0,0,2.677,0,6.864,6.864,0,0,0,1.841-.167,2.938,2.938,0,0,1,.669.837A17.561,17.561,0,0,0,92.066,20.3c-.167,0,0,.167.167.167a35.212,35.212,0,0,1,4.016-1,1.006,1.006,0,0,1,.167.669c-.335.167-.5.335-.837.335a5.152,5.152,0,0,1-2.175.5.421.421,0,0,0,0,.837,4.632,4.632,0,0,0,2.175-.5c.167,0,.5-.167.669-.167a3.951,3.951,0,0,1-1,1.506c-.669.167-1.171.5-1.841.669a27.781,27.781,0,0,1-3.681.5.164.164,0,0,0-.167.167,1.278,1.278,0,0,1-.837-.335.37.37,0,0,0-.5.5,4.027,4.027,0,0,0,1,1.339A2.96,2.96,0,0,1,86.377,24.144Zm5.856,88.683c0,3.012.167,6.024.335,9.036,0,1,.167,2.175.167,3.347H90.894a18.186,18.186,0,0,0-3.012.167c.5-7.7.167-15.227.167-22.924,0-8.2-.167-16.565-.167-24.764-.167-16.565-.167-33.131-.335-49.7a1.819,1.819,0,0,0,.837.167,6.225,6.225,0,0,0,5.02-2.008h.167a63.157,63.157,0,0,0-.335,7.864c0,2.008,0,3.848.167,5.856a.756.756,0,0,0,0,1.506h0c.167,2.008.167,3.848.335,5.856,0,8.7,0,17.569,0,26.437-.5,6.86-1,13.888-1.171,20.748C92.233,100.444,92.233,106.635,92.233,112.826ZM129.045,157.5l.5-.5h0c0,.167,0,.167.167.335C129.379,157.335,129.212,157.335,129.045,157.5Zm.5-1a.232.232,0,0,0-.335,0,17.84,17.84,0,0,1-3.179,1.171,9.71,9.71,0,0,0-1.673-9.7h-.167c1.673,3.179.837,6.526,1,9.872-1.339.335-2.677.837-4.016,1.171a36.379,36.379,0,0,0-.167-7.362.421.421,0,0,0-.837,0,56.578,56.578,0,0,0-.167,7.53c-1.673.5-3.347.837-5.02,1.506a18.1,18.1,0,0,0,0-3.012c0-2.008,0-4.016-.167-6.024,0-.669-.837-.669-1,0-.167,1.841-.167,3.514-.167,5.354a17.535,17.535,0,0,0,.167,4.183h0a26.688,26.688,0,0,1-6.358,1.171c.5-3.179-1-6.86.837-9.872.167-.167-.167-.335-.335-.167a8.973,8.973,0,0,0-1.841,4.518,21.587,21.587,0,0,0,0,5.689c-1.841.167-3.681.5-5.689.669-1.171-2.677-2.51-6.024-1.673-8.868,0-.167-.167-.335-.335-.167a7.44,7.44,0,0,0-1,5.354,10.157,10.157,0,0,0,.837,3.012,3.657,3.657,0,0,0,.5.837c-5.02.5-10.04.669-15.059.669-.335-3.347-1.171-6.526-1.673-9.872,0-.335-.5-.167-.669.167a37.749,37.749,0,0,0,.335,9.7c-1.841,0-3.681-.167-5.689-.335.167-1.171-.335-2.51-.335-3.514-.335-2.51-.837-4.852-1.171-7.362,0-.5-.669-.335-.837.167a32.336,32.336,0,0,0,.335,8.032,8.317,8.317,0,0,0,.335,2.677c-1.841-.167-3.681-.335-5.689-.5-.167-3.179-.669-7.028.669-9.872.167-.335-.335-.669-.5-.335-2.343,2.677-2.008,6.693-1.841,10.04-1.506-.167-3.012-.5-4.518-.669a16.159,16.159,0,0,1-.5-11.546c.167-.335-.335-.5-.5-.167a14.206,14.206,0,0,0-1.339,11.378h0c-1.506-.335-2.845-.669-4.183-1,1.171-3.849.669-8.7.167-12.549a.421.421,0,0,0-.837,0c-.335,2.343-.5,4.685-.669,7.028a38.91,38.91,0,0,1-.837,4.685,21.974,21.974,0,0,1-2.845-1.506.164.164,0,0,0,.167-.167c.669-1.673.335-3.514.335-5.354a52.676,52.676,0,0,1,.837-7.2v-.167c2.008.837,4.183,1.506,6.191,2.175a83.681,83.681,0,0,0,12.717,3.347,85.53,85.53,0,0,0,22.589,1.339,163.467,163.467,0,0,0,20.246-2.677c3.347-.669,6.526-1.339,9.7-2.175a24.246,24.246,0,0,0,5.856-2.008C129.379,149.136,129.379,152.817,129.547,156.5Zm-24.764-22.589c-3.179.167-6.526,1.506-9.7,2.343-4.016,1.171-7.864,2.008-12.047,2.845-.335,0-.167.5,0,.5a44.7,44.7,0,0,0,10.542-1.673c3.848-1,8.2-1.673,12.047-3.179a.164.164,0,0,0,.167-.167c1.339.669,2.845,1.171,4.183,2.008-1.171.5-2.175.837-3.179,1.171-2.51.837-4.852,1.673-7.362,2.343A89.45,89.45,0,0,1,83.2,143.112v.167a45.474,45.474,0,0,0,15.729-1.673c2.845-.669,5.522-1.673,8.2-2.51,1.506-.5,3.179-1,4.685-1.673a65.275,65.275,0,0,1,5.856,3.179c-4.016,1.339-8.032,3.012-12.047,4.35a65.478,65.478,0,0,1-18.741,3.012.251.251,0,0,0,0,.5c6.191.669,12.382-.5,18.239-2.175a93.746,93.746,0,0,0,13.553-5.02c.5.335,1,.5,1.506.837a5.235,5.235,0,0,0,1.673.837,36.922,36.922,0,0,1-4.518,2.008c-2.343.669-4.685,1.171-6.86,1.841a.359.359,0,0,0,.167.669c3.848-.669,9.2-1.171,12.549-3.849a19.943,19.943,0,0,0,3.347,1.339,21.191,21.191,0,0,1-3.012,1c-3.012.837-6.024,1.506-9.036,2.175a159.774,159.774,0,0,1-19.744,2.677,96.33,96.33,0,0,1-21.92-1,104.639,104.639,0,0,1-12.047-2.845c-4.016-1.171-7.864-2.845-11.88-3.681,6.358-2.175,12.215-5.522,18.573-8.032A59.785,59.785,0,0,1,91.062,131.4,31.784,31.784,0,0,1,104.782,133.909Zm49.194-81.655a3.516,3.516,0,0,1,1.171,2.343.584.584,0,0,0-.167.335v.335c0,.167-.167.167-.335.335h-.837a2.2,2.2,0,0,1-1.673-.5.869.869,0,0,1-.335-.669C151.8,53.593,153.14,52.756,153.976,52.254ZM124.025,42.047A141.521,141.521,0,0,0,94.91,39.7v-.669h0v-1h.167a185.16,185.16,0,0,1,30.453,2.175,112.724,112.724,0,0,1,14.892,3.347c3.848,1.171,7.362,2.677,11.044,4.183a.164.164,0,0,0-.167.167,1.409,1.409,0,0,0-.669,1.171,1.358,1.358,0,0,0,.669,1.339c.167.167.335.5.5.669h0C142.765,46.231,133.4,43.721,124.025,42.047Zm24.932,27.274c.837-2.343,1.171-4.685,1.841-7.2l1-3.514a3.469,3.469,0,0,1,.335-1c.335,0,.5.167.837.167a3.951,3.951,0,0,0,2.008-.167c.5,5.856,4.518,11.88,7.362,16.733,3.681,6.024,8.032,12.215,10.04,19.075-6.024.5-12.215,0-18.239-.167-4.852-.167-10.04.837-15.059.335C141.761,85.217,146.279,77.688,148.956,69.322Zm25.1,28.613h0c-1.841.335-3.179,1.506-5.02,2.008a19.3,19.3,0,0,1-6.191.335.53.53,0,0,0-.167,1,18.005,18.005,0,0,0,6.693,0c1.506-.335,3.514-1,4.518-2.175a7.958,7.958,0,0,1-.837,3.012,14.918,14.918,0,0,1-4.518,2.51,25.245,25.245,0,0,1-7.028.837c-.335,0-.335.335,0,.5,2.677.837,6.693,1,9.538-.335l-1,1c-3.681,1.171-6.86,4.685-10.876,2.51-.335-.167-.669.167-.335.5a5.033,5.033,0,0,0,3.681,1.339,23.6,23.6,0,0,1-6.86,1.171,15.4,15.4,0,0,1-10.876-3.347,44.853,44.853,0,0,0,6.693-.335.251.251,0,0,0,0-.5,28.751,28.751,0,0,0-7.53-.335h-.167a2.31,2.31,0,0,1-.5-.669,9.28,9.28,0,0,1-1-1.339,14.849,14.849,0,0,0,2.51.335,10.068,10.068,0,0,0,6.86-1.673c.167,0,0-.335-.167-.167-2.175,1.171-4.685.837-7.2.5a9.591,9.591,0,0,1-2.343-.669h0a19.025,19.025,0,0,1-2.51-2.677c0-.167-.167-.335-.167-.5a19.626,19.626,0,0,1-.837-1.841c3.681,2.677,9.036,2.008,13.219,1.673.167,0,.167-.167,0-.167-2.008-.167-4.183-.167-6.191-.335a13.811,13.811,0,0,1-7.2-2.51h-.167a5.7,5.7,0,0,1,0-3.347h0a2.938,2.938,0,0,0-.669.837c0-.335-.167-.837-.167-1.171a1.106,1.106,0,0,0,1,.167c4.35,2.175,9.872,1.339,14.39,1.339,6.86.167,13.721,1,20.414.335a1.041,1.041,0,0,0,1,.669Z" transform="translate(-9.887 -13.349)"/>
  <path id="Path_23589" data-name="Path 23589" d="M57.9,97.661c.167,3.012.167,6.024,1,8.868.167.837,1.673.669,1.506-.167A51.676,51.676,0,0,0,58.9,97.494C58.737,97.159,57.9,97.159,57.9,97.661Z" transform="translate(22.438 43.146)"/>
  <path id="Path_23590" data-name="Path 23590" d="M22.578,65.547c-.335,0-.167.5,0,.5,4.35.5,9.538-.669,12.884-3.514.669-.5-.167-1.339-.837-1a37.033,37.033,0,0,1-5.856,2.677A40.945,40.945,0,0,1,22.578,65.547Z" transform="translate(-1.473 19.039)"/>
  <path id="Path_23591" data-name="Path 23591" d="M22,69.208c0,3.848,8.7.5,9.872-1,.167-.167,0-.5-.335-.5-2.51-.167-7.028,4.183-9.2,1.506C22.167,68.873,22,69.041,22,69.208Z" transform="translate(-1.732 23.242)"/>
</svg>
