<svg xmlns="http://www.w3.org/2000/svg" width="128.478" height="125.508" viewBox="0 0 128.478 125.508">
  <g id="balance" transform="matrix(0.883, 0.469, -0.469, 0.883, 39.934, -16.428)" opacity="0.05">
    <g id="Group_17009" data-name="Group 17009" transform="translate(9.887 13.349)">
      <path id="Path_23588" data-name="Path 23588" d="M107.308,61.516c0-.1-.1-.2-.1-.293.293-.489.1-1.369-.587-1.271a.882.882,0,0,0-.489.1c-1.076-3.814-3.325-7.237-5.477-10.562-1.174-1.858-2.445-3.716-3.423-5.672a21.8,21.8,0,0,1-1.858-4.988c.1-.1.293-.2.391-.293a.274.274,0,0,0-.2-.489A3.089,3.089,0,0,0,94.5,35.013a1.39,1.39,0,0,0-.587-.2c-.1,0-.1.1-.2.1,0-.1,0-.1-.1-.2s-.1-.293-.2-.391a.882.882,0,0,0-.1-.489c0-.1,0-.1-.1-.1.1,0,.1,0,.2.1.2.1.293-.2.2-.293a19.523,19.523,0,0,0-7.139-3.521,48.183,48.183,0,0,0-9-2.152A113.005,113.005,0,0,0,59.289,26.6h-.1V25.428c0-.1,0-.1-.1-.1v-4.5a3.611,3.611,0,0,0,2.347-2.543,2.775,2.775,0,0,0-.88-2.543l.1-.1c.1-.1,0-.2-.1-.1l-.1.1A7.539,7.539,0,0,0,58.6,14.279a5.3,5.3,0,0,0-3.619-.88,2.824,2.824,0,0,0-2.347,2.152h0c-.2.1-.2.391-.1.685-.391,2.249.685,4.988,2.641,5.77v7.139c-.1,0-.1-.1-.2-.1a88.878,88.878,0,0,0-17.7,1.369A55.981,55.981,0,0,0,23,34.719a1.981,1.981,0,0,0-1.467-.391,1.813,1.813,0,0,1-.2-.685c2.152-.88,4.3-1.76,6.455-2.445a65.885,65.885,0,0,1,8.7-1.956,108.223,108.223,0,0,1,17.8-1.271.638.638,0,0,0,0-1.271,87.946,87.946,0,0,0-18.289.978,57.341,57.341,0,0,0-9,2.152,21.537,21.537,0,0,0-6.259,2.934c-.2,0-.391.1-.391.293-.1.1-.293.2-.391.391-.2.1,0,.391.2.293.1,0,.2-.1.293-.1,0,.2.1.489.1.685a.647.647,0,0,0-.1.587,2.812,2.812,0,0,0-1.76.685c-.587.489-.978.88-.782,1.663a9.613,9.613,0,0,0,.489,1.565A2.884,2.884,0,0,0,19.68,40.2a114.264,114.264,0,0,1-9.193,18.289.4.4,0,1,0,.685.391c3.619-5.672,7.139-11.932,8.9-18.582a3.257,3.257,0,0,0,2.152-.1h0a27.514,27.514,0,0,0,3.032,9.193c1.467,3.13,3.325,5.966,4.89,9.1-1.076.1-2.152.1-3.227.2a37.947,37.947,0,0,1-5.77.2c-3.619,0-7.433-.489-11.051.293-.1,0-.1.2,0,.293a7.439,7.439,0,0,0,.293,4.4c0,.1,0,.1.1.1a5.437,5.437,0,0,0,.88,1.663c-.2.2-.2.489.1.587a1.652,1.652,0,0,0,.489.2,12.529,12.529,0,0,0,8.9,4.3,11.6,11.6,0,0,0,7.922-2.836,10.064,10.064,0,0,0,2.543-3.814c.489-1.369.978-3.227.489-4.6a.437.437,0,0,0,0-.489.1.1,0,1,1,0-.2c.2-.2.2-.587-.2-.587h-.293c-3.032-6.161-7.139-11.736-8.411-18.484a3.941,3.941,0,0,0,1.663-2.836,2.677,2.677,0,0,0-.88-2.152c9.78-4.01,21.125-5.477,31.589-5.183h.2c0,6.944-.1,13.79-.1,20.734-.391,4.89-.391,9.682-.391,14.474,0,4.694-.2,9.389.1,13.985a32.107,32.107,0,0,0-11.443,3.716c-4.01,2.054-7.824,4.3-11.834,6.357-.2-.1-.587.1-.391.391.685,1.467.293,2.934.1,4.4-.1.782-.1,1.858.685,2.249.2.1.391,0,.391-.293,0-1.174-.1-2.249,0-3.325A5.021,5.021,0,0,0,32,89.1h.1c0,.1,0,.1.1.1a15.11,15.11,0,0,0,2.152,1.174v.1a12.458,12.458,0,0,0-1.076,3.716,14.649,14.649,0,0,0-.2,2.152h-.1c-.293.293-.489.587-.391.88a4.96,4.96,0,0,1-.88-1.565h-.1a4.616,4.616,0,0,0,1.076,3.521,8.231,8.231,0,0,0,4.108,2.934c4.3,1.663,9.193,1.663,13.79,1.467,1.076,0,2.152-.1,3.13-.2a51.254,51.254,0,0,0,5.477-.2c2.543-.2,5.086-.587,7.628-.978a22.74,22.74,0,0,0,2.738-.489c.1,0,.2-.1.293-.1a65.874,65.874,0,0,0,10.562-3.227.6.6,0,0,0,.293-.88c.1-.1.1-.2.1-.391a38.985,38.985,0,0,0-.293-6.748.741.741,0,0,0,.1-.978,20.65,20.65,0,0,0-5.183-3.912c-1.858-1.174-3.619-2.445-5.575-3.521a27.4,27.4,0,0,0-10.269-3.227,14.591,14.591,0,0,1-.2-2.054c0-.685-.1-1.369-.1-2.054.2-8.215.293-16.528.293-24.743.1-2.347.293-4.694.391-7.042a99.263,99.263,0,0,0-.391-13.2C70.535,29.34,82.369,31.1,92.345,35.7v.1l-.1.1a.3.3,0,0,1-.2-.1c-.2-.1-.489.1-.391.293a1.063,1.063,0,0,0,.1.489,1.86,1.86,0,0,0,0,1.76,2.285,2.285,0,0,0,.685.685,19.126,19.126,0,0,0-1.663,4.694c-1.663,5.575-4.988,10.562-6.748,16.137-.1,0-.293,0-.293.2a6.477,6.477,0,0,0,.1,4.5,4.78,4.78,0,0,0,1.369,1.76,13.568,13.568,0,0,0,1.076,1.858,9.725,9.725,0,0,0,7.922,4.5C100.756,73.252,108.188,68.753,107.308,61.516Zm-77.653,1.76c0,.1,0,.1-.1.2-.782.2-1.663.685-2.347.88a5.932,5.932,0,0,1-4.108,0c-.1-.1-.293.1-.2.2a3.2,3.2,0,0,0,3.325.978,10.63,10.63,0,0,0,2.738-.587A13.011,13.011,0,0,1,27.6,66.8a9.507,9.507,0,0,1-6.944,2.641,11.4,11.4,0,0,1-4.4-.88,2.248,2.248,0,0,0,1.76-1.174s0-.1-.1,0a2.586,2.586,0,0,1-2.249.391c-.685-.1-1.271-.685-1.956-.587l-.1-.1-.1-.1a9.45,9.45,0,0,0,2.347-.1c.1,0,.1-.2,0-.293-1.076-.2-2.249-.293-3.325-.587-.293-.391-.587-.88-.88-1.271a16.334,16.334,0,0,0,4.89.1.2.2,0,1,0,0-.391,16.758,16.758,0,0,1-5.379-.88,13.849,13.849,0,0,1-.685-2.152h0a7.991,7.991,0,0,0,6.846-.2c.293-.1.1-.489-.2-.391a8.635,8.635,0,0,1-6.259-.2.435.435,0,0,0-.587.2c-.1-.391-.2-.685-.293-1.076a58.516,58.516,0,0,0,10.856,1.174,37.9,37.9,0,0,0,5.77-.1,9.618,9.618,0,0,0,3.716-1.076C29.949,60.734,30.046,62.1,29.655,63.277Zm-7.433-26.21v.293l-.1.2c0,.1-.1.2-.2.293h0l-.1.1-.2.2a.341.341,0,0,1-.2.1.508.508,0,0,1-.391.2H20.56a2.046,2.046,0,0,1-.587-.391,3.012,3.012,0,0,1-.489-1.174,1.991,1.991,0,0,1,.587-.685,3.615,3.615,0,0,1,1.076-.489.1.1,0,0,1,.1.1c.1.1.2.1.293.2l.1.1c.1.1.2.2.293.2h0l.1.1v.1h0c0,.1,0,.1.1.2h0v.1A.757.757,0,0,1,22.222,37.066Zm10.954,59.56a1.972,1.972,0,0,0,.293,1.076A1.164,1.164,0,0,1,33.176,96.626ZM59.289,15.844l.1.1c-.1,0-.2.1-.391.1C59.093,16.039,59.191,15.942,59.289,15.844Zm-1.076-.685a7.439,7.439,0,0,1-2.054-.782A4.463,4.463,0,0,1,58.213,15.159Zm-3.619,4.5c-.1-.1-.2-.293-.293-.391A4.717,4.717,0,0,0,57.137,17.6c.1-.1,0-.1-.1-.1a5.545,5.545,0,0,1-1.271.782,3.836,3.836,0,0,1-1.76.391,4.43,4.43,0,0,1-.293-1.565,8.042,8.042,0,0,0,2.641-.2v-.1a7.32,7.32,0,0,1-2.543-.1,1.24,1.24,0,0,1,.1-.587,4.17,4.17,0,0,1,1.76-.587.147.147,0,1,0,0-.293,4.607,4.607,0,0,0-1.663.391c.1-.2.1-.293.2-.489a1.675,1.675,0,0,1,1.565-.88A2.88,2.88,0,0,0,58.6,15.453h.1c.1,0,.1.1.2.1h0a1.473,1.473,0,0,1-1.663.293c-.293-.1-.391.293-.1.391a2.155,2.155,0,0,0,1.565,0,4.012,4.012,0,0,0,1.076-.1,1.717,1.717,0,0,1,.391.489,10.264,10.264,0,0,0-2.249.782c-.1,0,0,.1.1.1a20.581,20.581,0,0,1,2.347-.587.588.588,0,0,1,.1.391c-.2.1-.293.2-.489.2A3.012,3.012,0,0,1,58.7,17.8a.246.246,0,0,0,0,.489A2.707,2.707,0,0,0,59.973,18c.1,0,.293-.1.391-.1a2.309,2.309,0,0,1-.587.88c-.391.1-.685.293-1.076.391a16.238,16.238,0,0,1-2.152.293.1.1,0,0,0-.1.1.747.747,0,0,1-.489-.2.216.216,0,0,0-.293.293,2.354,2.354,0,0,0,.587.782A1.73,1.73,0,0,1,54.594,19.658Zm3.423,51.834c0,1.76.1,3.521.2,5.281,0,.587.1,1.271.1,1.956H57.235a10.629,10.629,0,0,0-1.76.1c.293-4.5.1-8.9.1-13.4,0-4.792-.1-9.682-.1-14.474-.1-9.682-.1-19.364-.2-29.046a1.063,1.063,0,0,0,.489.1A3.638,3.638,0,0,0,58.7,20.832h.1a36.915,36.915,0,0,0-.2,4.6c0,1.174,0,2.249.1,3.423a.442.442,0,0,0,0,.88h0c.1,1.174.1,2.249.2,3.423,0,5.086,0,10.269,0,15.452-.293,4.01-.587,8.117-.685,12.127C58.017,64.255,58.017,67.873,58.017,71.492ZM79.533,97.6l.293-.293h0c0,.1,0,.1.1.2C79.729,97.507,79.631,97.507,79.533,97.6Zm.293-.587a.135.135,0,0,0-.2,0,10.427,10.427,0,0,1-1.858.685,5.675,5.675,0,0,0-.978-5.672h-.1c.978,1.858.489,3.814.587,5.77-.782.2-1.565.489-2.347.685a21.263,21.263,0,0,0-.1-4.3.246.246,0,0,0-.489,0,33.069,33.069,0,0,0-.1,4.4c-.978.293-1.956.489-2.934.88a10.581,10.581,0,0,0,0-1.76c0-1.174,0-2.347-.1-3.521,0-.391-.489-.391-.587,0-.1,1.076-.1,2.054-.1,3.13a10.249,10.249,0,0,0,.1,2.445h0a15.6,15.6,0,0,1-3.716.685c.293-1.858-.587-4.01.489-5.77.1-.1-.1-.2-.2-.1a5.245,5.245,0,0,0-1.076,2.641,12.617,12.617,0,0,0,0,3.325c-1.076.1-2.152.293-3.325.391-.685-1.565-1.467-3.521-.978-5.183,0-.1-.1-.2-.2-.1a4.348,4.348,0,0,0-.587,3.13,5.937,5.937,0,0,0,.489,1.76,2.138,2.138,0,0,0,.293.489c-2.934.293-5.868.391-8.8.391-.2-1.956-.685-3.814-.978-5.77,0-.2-.293-.1-.391.1a22.064,22.064,0,0,0,.2,5.672c-1.076,0-2.152-.1-3.325-.2a13.313,13.313,0,0,0-.2-2.054c-.2-1.467-.489-2.836-.685-4.3,0-.293-.391-.2-.489.1a18.9,18.9,0,0,0,.2,4.694,4.861,4.861,0,0,0,.2,1.565c-1.076-.1-2.152-.2-3.325-.293-.1-1.858-.391-4.108.391-5.77.1-.2-.2-.391-.293-.2-1.369,1.565-1.174,3.912-1.076,5.868-.88-.1-1.76-.293-2.641-.391a9.445,9.445,0,0,1-.293-6.748c.1-.2-.2-.293-.293-.1a8.3,8.3,0,0,0-.782,6.65h0c-.88-.2-1.663-.391-2.445-.587.685-2.249.391-5.086.1-7.335a.246.246,0,0,0-.489,0c-.2,1.369-.293,2.738-.391,4.108a22.742,22.742,0,0,1-.489,2.738,12.842,12.842,0,0,1-1.663-.88.1.1,0,0,0,.1-.1,8.337,8.337,0,0,0,.2-3.13,30.789,30.789,0,0,1,.489-4.205v-.1c1.174.489,2.445.88,3.619,1.271a48.91,48.91,0,0,0,7.433,1.956,49.991,49.991,0,0,0,13.2.782A95.545,95.545,0,0,0,70.731,93.2c1.956-.391,3.814-.782,5.672-1.271a14.171,14.171,0,0,0,3.423-1.174C79.729,92.714,79.729,94.866,79.826,97.018Zm-14.474-13.2a29.914,29.914,0,0,0-5.672,1.369c-2.347.685-4.6,1.174-7.042,1.663-.2,0-.1.293,0,.293a26.129,26.129,0,0,0,6.161-.978A62.366,62.366,0,0,0,65.841,84.3a.1.1,0,0,0,.1-.1c.782.391,1.663.685,2.445,1.174-.685.293-1.271.489-1.858.685-1.467.489-2.836.978-4.3,1.369a52.282,52.282,0,0,1-9.487,1.76v.1a26.579,26.579,0,0,0,9.193-.978c1.663-.391,3.227-.978,4.792-1.467.88-.293,1.858-.587,2.738-.978a38.15,38.15,0,0,1,3.423,1.858c-2.347.782-4.694,1.76-7.042,2.543a38.271,38.271,0,0,1-10.954,1.76.147.147,0,1,0,0,.293,28.043,28.043,0,0,0,10.66-1.271,54.792,54.792,0,0,0,7.922-2.934c.293.2.587.293.88.489a3.059,3.059,0,0,0,.978.489,21.578,21.578,0,0,1-2.641,1.174c-1.369.391-2.738.685-4.01,1.076a.21.21,0,0,0,.1.391c2.249-.391,5.379-.685,7.335-2.249a11.657,11.657,0,0,0,1.956.782,12.385,12.385,0,0,1-1.76.587c-1.76.489-3.521.88-5.281,1.271a93.386,93.386,0,0,1-11.54,1.565,56.3,56.3,0,0,1-12.812-.587,61.16,61.16,0,0,1-7.042-1.663c-2.347-.685-4.6-1.663-6.944-2.152C36.4,88.02,39.826,86.064,43.543,84.6a34.944,34.944,0,0,1,13.79-2.249A18.578,18.578,0,0,1,65.352,83.815ZM94.105,36.088a2.055,2.055,0,0,1,.685,1.369.341.341,0,0,0-.1.2v.2c0,.1-.1.1-.2.2h-.489a1.285,1.285,0,0,1-.978-.293.508.508,0,0,1-.2-.391C92.834,36.871,93.616,36.382,94.105,36.088ZM76.6,30.123a82.717,82.717,0,0,0-17.017-1.369v-.391h0v-.587h.1a108.223,108.223,0,0,1,17.8,1.271A65.886,65.886,0,0,1,86.183,31c2.249.685,4.3,1.565,6.455,2.445a.1.1,0,0,0-.1.1.823.823,0,0,0-.391.685.794.794,0,0,0,.391.782c.1.1.2.293.293.391h0A53.487,53.487,0,0,0,76.6,30.123ZM91.171,46.064c.489-1.369.685-2.738,1.076-4.205l.587-2.054a2.027,2.027,0,0,1,.2-.587c.2,0,.293.1.489.1a2.309,2.309,0,0,0,1.174-.1c.293,3.423,2.641,6.944,4.3,9.78,2.152,3.521,4.694,7.139,5.868,11.149a96.914,96.914,0,0,1-10.66-.1c-2.836-.1-5.868.489-8.8.2C86.966,55.355,89.606,50.954,91.171,46.064Zm14.67,16.724h0c-1.076.2-1.858.88-2.934,1.174a11.279,11.279,0,0,1-3.619.2.31.31,0,0,0-.1.587,10.524,10.524,0,0,0,3.912,0,5.147,5.147,0,0,0,2.641-1.271,4.651,4.651,0,0,1-.489,1.76,8.719,8.719,0,0,1-2.641,1.467,14.755,14.755,0,0,1-4.108.489c-.2,0-.2.2,0,.293a8.419,8.419,0,0,0,5.575-.2l-.587.587c-2.152.685-4.01,2.738-6.357,1.467-.2-.1-.391.1-.2.293a2.942,2.942,0,0,0,2.152.782,13.793,13.793,0,0,1-4.01.685,9,9,0,0,1-6.357-1.956,26.216,26.216,0,0,0,3.912-.2.147.147,0,0,0,0-.293,16.8,16.8,0,0,0-4.4-.2h-.1a1.35,1.35,0,0,1-.293-.391,5.424,5.424,0,0,1-.587-.782,8.679,8.679,0,0,0,1.467.2,5.885,5.885,0,0,0,4.01-.978c.1,0,0-.2-.1-.1a6.807,6.807,0,0,1-4.205.293,5.606,5.606,0,0,1-1.369-.391h0A11.12,11.12,0,0,1,85.6,64.744c0-.1-.1-.2-.1-.293a11.471,11.471,0,0,1-.489-1.076c2.152,1.565,5.281,1.174,7.726.978.1,0,.1-.1,0-.1-1.174-.1-2.445-.1-3.619-.2a8.072,8.072,0,0,1-4.205-1.467h-.1a3.329,3.329,0,0,1,0-1.956h0a1.717,1.717,0,0,0-.391.489c0-.2-.1-.489-.1-.685a.647.647,0,0,0,.587.1c2.543,1.271,5.77.782,8.411.782,4.01.1,8.02.587,11.932.2a.608.608,0,0,0,.587.391Z" transform="translate(-9.887 -13.349)"/>
      <path id="Path_23589" data-name="Path 23589" d="M57.9,97.495a22.766,22.766,0,0,0,.587,5.183c.1.489.978.391.88-.1a30.2,30.2,0,0,0-.88-5.183C58.389,97.2,57.9,97.2,57.9,97.495Z" transform="translate(-10.944 -15.195)"/>
      <path id="Path_23590" data-name="Path 23590" d="M22.5,63.846c-.2,0-.1.293,0,.293a10.331,10.331,0,0,0,7.531-2.054c.391-.293-.1-.782-.489-.587a21.646,21.646,0,0,1-3.423,1.565A23.932,23.932,0,0,1,22.5,63.846Z" transform="translate(-10.162 -14.407)"/>
      <path id="Path_23591" data-name="Path 23591" d="M22,68.58c0,2.249,5.086.293,5.77-.587.1-.1,0-.293-.2-.293-1.467-.1-4.108,2.445-5.379.88C22.1,68.385,22,68.482,22,68.58Z" transform="translate(-10.154 -14.544)"/>
    </g>
  </g>
</svg>
