<svg id="Group_16851" data-name="Group 16851" xmlns="http://www.w3.org/2000/svg" width="26.101" height="17.702" viewBox="0 0 26.101 17.702">
  <path id="Path_21413" data-name="Path 21413" d="M26.981,17.8H4.092A1.593,1.593,0,0,0,2.5,19.392V33.91A1.593,1.593,0,0,0,4.092,35.5H27.009A1.593,1.593,0,0,0,28.6,33.91V19.392A1.635,1.635,0,0,0,26.981,17.8Zm.549,16.083a.551.551,0,0,1-.549.549H4.092a.551.551,0,0,1-.549-.549V19.392a.551.551,0,0,1,.549-.549H27.009a.551.551,0,0,1,.549.549L27.53,33.883Z" transform="translate(-2.5 -17.8)" fill="#d2a76b"/>
  <path id="Path_21414" data-name="Path 21414" d="M31.831,37.205l-7.815-5.817,7.815-6.067a.531.531,0,0,0-.663-.831L21.062,32.33l-10.19-7.646a.534.534,0,0,0-.635.859l7.815,5.845-7.815,5.817a.557.557,0,0,0-.11.748.524.524,0,0,0,.414.222.415.415,0,0,0,.3-.111l8.063-6.011,1.823,1.385a.415.415,0,0,0,.3.111.53.53,0,0,0,.331-.111l1.767-1.357L31.2,38.092a.415.415,0,0,0,.3.111.486.486,0,0,0,.414-.222A.561.561,0,0,0,31.831,37.205Z" transform="translate(-8.023 -22.626)" fill="#d2a76b"/>
</svg>
