<svg xmlns="http://www.w3.org/2000/svg" width="46.675" height="41.343" viewBox="0 0 46.675 41.343">
  <g id="Group_9458" data-name="Group 9458" transform="translate(-2.474 -7.9)">
    <path id="Path_18460" data-name="Path 18460" d="M27.97,39.679,29,36.978a.872.872,0,0,0-.835-1.178h-19a5.95,5.95,0,0,0-5.892,5.3l-.786,7.218a1.367,1.367,0,0,0,1.08,1.522c.786.147,1.817.295,2.9.393l.687,11.49a1.793,1.793,0,0,0,1.817,1.719h5.548a1.793,1.793,0,0,0,1.817-1.719l.933-19.689a1.8,1.8,0,0,1,1.817-1.768h8.053A.9.9,0,0,0,27.97,39.679Z" transform="translate(0 -14.201)" fill="#fff"/>
    <circle id="Ellipse_542" data-name="Ellipse 542" cx="6.039" cy="6.039" r="6.039" transform="translate(5.728 7.9)" fill="#fff"/>
    <path id="Path_18461" data-name="Path 18461" d="M65.294,55.889l-.638-2.7a.909.909,0,0,1,.295-.884l2.111-1.817a.861.861,0,0,0-.491-1.522l-2.75-.245a.944.944,0,0,1-.737-.54L62,45.627a.87.87,0,0,0-1.62,0L59.3,48.181a.944.944,0,0,1-.737.54l-2.8.245a.861.861,0,0,0-.491,1.522l2.111,1.817a.947.947,0,0,1,.295.884l-.638,2.7a.871.871,0,0,0,1.326.933L60.728,55.4a1.04,1.04,0,0,1,.933,0l2.357,1.424A.848.848,0,0,0,65.294,55.889Z" transform="translate(-26.718 -18.922)" fill="#fff"/>
    <path id="Path_18462" data-name="Path 18462" d="M49.271,71.766l-2.75-.246a.944.944,0,0,1-.737-.54l-1.129-2.553a.87.87,0,0,0-1.62,0l-1.08,2.553a.944.944,0,0,1-.737.54l-2.75.245a.861.861,0,0,0-.491,1.522l2.111,1.817a.947.947,0,0,1,.295.884l-.638,2.7a.871.871,0,0,0,1.326.933L43.428,78.2a1.04,1.04,0,0,1,.933,0l2.357,1.424a.887.887,0,0,0,1.326-.933l-.638-2.7a.909.909,0,0,1,.295-.884l2.111-1.817A.9.9,0,0,0,49.271,71.766Z" transform="translate(-17.912 -30.527)" fill="#fff"/>
    <path id="Path_18463" data-name="Path 18463" d="M84.362,73.288a.861.861,0,0,0-.491-1.522l-2.75-.246a.944.944,0,0,1-.737-.54l-1.129-2.553a.87.87,0,0,0-1.62,0l-1.08,2.553a.944.944,0,0,1-.737.54l-2.75.245a.861.861,0,0,0-.491,1.522l2.111,1.817a.947.947,0,0,1,.295.884l-.638,2.7a.871.871,0,0,0,1.326.933L78.028,78.2a1.04,1.04,0,0,1,.933,0l2.357,1.424a.887.887,0,0,0,1.326-.933l-.687-2.7a.909.909,0,0,1,.295-.884Z" transform="translate(-35.524 -30.527)" fill="#fff"/>
  </g>
</svg>
