<svg xmlns="http://www.w3.org/2000/svg" width="46" height="46" viewBox="0 0 46 46">
  <path id="Icon_awesome-smile-beam" data-name="Icon awesome-smile-beam" d="M23,.563a23,23,0,1,0,23,23A23,23,0,0,0,23,.563ZM10.387,20.539c.306-3.9,2.986-6.622,5.194-6.622s4.887,2.717,5.194,6.622a.739.739,0,0,1-1.382.417l-.881-1.577a3.469,3.469,0,0,0-2.921-2,3.469,3.469,0,0,0-2.921,2l-.881,1.577a.75.75,0,0,1-1.4-.417Zm23.26,11.389a13.854,13.854,0,0,1-21.294,0,1.485,1.485,0,0,1,2.281-1.9,10.9,10.9,0,0,0,16.731,0A1.485,1.485,0,0,1,33.647,31.928Zm.575-10.971-.881-1.577a3.469,3.469,0,0,0-2.921-2,3.469,3.469,0,0,0-2.921,2l-.881,1.577a.741.741,0,0,1-1.382-.417c.306-3.9,2.986-6.622,5.194-6.622s4.887,2.717,5.194,6.622A.75.75,0,0,1,34.222,20.956Z" transform="translate(0 -0.563)" fill="#fff"/>
</svg>
