<svg xmlns="http://www.w3.org/2000/svg" width="36.848" height="40.533" viewBox="0 0 36.848 40.533">
  <g id="noun_Teacher_2899827" transform="translate(-6 -5)">
    <g id="Group_10403" data-name="Group 10403" transform="translate(6 5)">
      <path id="Path_18983" data-name="Path 18983" d="M15.212,14.212a9.212,9.212,0,1,1,9.212,9.212A9.212,9.212,0,0,1,15.212,14.212ZM27.851,37.648,24.424,27.4,21,37.648h0l3.427,3.445,3.427-3.427Zm.258-12.381h-.516l4.072,12.2a1.842,1.842,0,0,1-.405,2.008L25.2,45.533H41.006a1.842,1.842,0,0,0,1.842-1.842V40.006A14.739,14.739,0,0,0,28.109,25.267ZM17.589,39.472a1.842,1.842,0,0,1-.405-2.008l4.072-12.2h-.516A14.739,14.739,0,0,0,6,40.006v3.685a1.842,1.842,0,0,0,1.842,1.842H23.669Z" transform="translate(-6 -5)" fill="#fff"/>
    </g>
  </g>
</svg>
