<svg xmlns="http://www.w3.org/2000/svg" width="24.615" height="32" viewBox="0 0 24.615 32">
  <g id="noun_summary_3082156" transform="translate(-13.6 -2.6)">
    <g id="Group_16977" data-name="Group 16977" transform="translate(13.6 2.6)">
      <path id="Path_23581" data-name="Path 23581" d="M31.307,11.434H42.2a.753.753,0,0,0,.707-.781V7.248a.753.753,0,0,0-.707-.781H40.366V6.4a3.784,3.784,0,0,0-3.6-3.8,3.784,3.784,0,0,0-3.6,3.8v.071H31.307a.753.753,0,0,0-.707.781v3.406A.753.753,0,0,0,31.307,11.434Zm5.461-6.493a1.52,1.52,0,0,1,1.446,1.6,1.453,1.453,0,1,1-2.891,0A1.543,1.543,0,0,1,36.768,4.942Z" transform="translate(-24.568 -2.6)" fill="#d2a76b"/>
      <path id="Path_23582" data-name="Path 23582" d="M36.462,20H34v1.733a2.461,2.461,0,0,1-2.462,2.433H20.108a2.461,2.461,0,0,1-2.462-2.433V20H15.32a1.717,1.717,0,0,0-1.72,1.7V44.127a1.717,1.717,0,0,0,1.72,1.7H36.5a1.717,1.717,0,0,0,1.72-1.7V21.7A1.769,1.769,0,0,0,36.462,20ZM33.023,40.528a.565.565,0,0,1-.573.567H19.332a.565.565,0,0,1-.573-.567v-.966A.565.565,0,0,1,19.332,39H32.416a.565.565,0,0,1,.573.567v.966Zm0-5.365a.565.565,0,0,1-.573.567H19.332a.565.565,0,0,1-.573-.567V34.2a.565.565,0,0,1,.573-.567H32.416a.565.565,0,0,1,.573.567v.966Zm0-5.365a.565.565,0,0,1-.573.567H19.332a.565.565,0,0,1-.573-.567v-.966a.565.565,0,0,1,.573-.567H32.416a.565.565,0,0,1,.573.567V29.8Z" transform="translate(-13.6 -13.827)" fill="#d2a76b"/>
    </g>
  </g>
</svg>
