<svg id="Group_16850" data-name="Group 16850" xmlns="http://www.w3.org/2000/svg" width="24.106" height="24.103" viewBox="0 0 24.106 24.103">
  <path id="Path_21412" data-name="Path 21412" d="M32.626,27.511l-3.5-2.445a2.7,2.7,0,0,0-3.762.669L24.552,26.9a30.1,30.1,0,0,1-4.329-3.637,30.057,30.057,0,0,1-3.636-4.329l1.164-.812a2.7,2.7,0,0,0,.669-3.762l-2.445-3.5a2.7,2.7,0,0,0-2.207-1.168,2.534,2.534,0,0,0-.879.157,4.846,4.846,0,0,0-.91.447l-.483.34a3.664,3.664,0,0,0-.341.3A4.854,4.854,0,0,0,9.91,13.158C8.9,16.934,11.4,22.644,16.12,27.366c3.965,3.965,8.729,6.428,12.432,6.429h0a6.9,6.9,0,0,0,1.777-.219,4.854,4.854,0,0,0,2.218-1.244,3.675,3.675,0,0,0,.319-.361l.341-.486a4.866,4.866,0,0,0,.431-.886A2.659,2.659,0,0,0,32.626,27.511Zm0,2.711a3.792,3.792,0,0,1-.318.664L32,31.327a2.642,2.642,0,0,1-.216.241,3.793,3.793,0,0,1-1.732.964,5.841,5.841,0,0,1-1.5.183c-3.427,0-7.9-2.342-11.668-6.112-4.389-4.389-6.827-9.8-5.93-13.165a3.788,3.788,0,0,1,.964-1.733,2.687,2.687,0,0,1,.219-.2l.438-.309a3.74,3.74,0,0,1,.688-.333,1.455,1.455,0,0,1,.5-.09,1.623,1.623,0,0,1,1.321.706l2.444,3.5a1.618,1.618,0,0,1-.4,2.258L15.54,18.347a.54.54,0,0,0-.148.731,29.867,29.867,0,0,0,4.067,4.95,29.926,29.926,0,0,0,4.95,4.068.541.541,0,0,0,.73-.148l1.112-1.593a1.662,1.662,0,0,1,2.258-.4l3.5,2.445A1.579,1.579,0,0,1,32.624,30.223Z" transform="translate(-9.689 -9.691)" fill="gray"/>
</svg>
