<svg xmlns="http://www.w3.org/2000/svg" xmlns:xlink="http://www.w3.org/1999/xlink" width="24.467" height="24.467" viewBox="0 0 24.467 24.467">
  <defs>
    <clipPath id="clip-path">
      <rect width="24.467" height="24.467" fill="none"/>
    </clipPath>
  </defs>
  <g id="iconfinder_2202250_account_avatar_human_man_profile_icon_1_" data-name="iconfinder_2202250_account_avatar_human_man_profile_icon(1)" clip-path="url(#clip-path)">
    <g id="iconfinder_2202250_account_avatar_human_man_profile_icon_1_2" data-name="iconfinder_2202250_account_avatar_human_man_profile_icon(1)">
      <path id="Path_23571" data-name="Path 23571" d="M18.673,15.346a6.673,6.673,0,1,1,6.673-6.673A6.692,6.692,0,0,1,18.673,15.346Zm0-12.233a5.561,5.561,0,1,0,5.561,5.561A5.577,5.577,0,0,0,18.673,3.112Z" transform="translate(-6.439 -2)" fill="gray"/>
      <path id="Path_23572" data-name="Path 23572" d="M9.229,28H19.238a7.214,7.214,0,0,1,7.229,7.229v2.78H25.355v-2.78a6.1,6.1,0,0,0-6.117-6.117H9.229a6.1,6.1,0,0,0-6.117,6.117v2.78H2v-2.78A7.214,7.214,0,0,1,9.229,28Z" transform="translate(-2 -13.542)" fill="gray"/>
    </g>
  </g>
</svg>
